<?xml version="1.0" encoding="iso-8859-1"?>
<!-- Generator: Adobe Illustrator 21.0.0, SVG Export Plug-In . SVG Version: 6.00 Build 0)  -->
<svg version="1.1" id="Capa_1" xmlns="http://www.w3.org/2000/svg" xmlns:xlink="http://www.w3.org/1999/xlink" x="0px" y="0px"
	 viewBox="0 0 128.36 128.37" style="enable-background:new 0 0 128.36 128.37;" xml:space="preserve">
<g>
	<path d="M18.39,65.16c0.85-0.49,1.9-1.04,3.13-1.66c9.83-4.92,20.79-7.17,30.84-5.62c9.79,1.52,18.66,6.54,24.83,16.07
		c1.3-0.45,2.61-0.82,3.93-1.11c2.88-0.63,5.88-0.88,8.91-0.75c3.03,0.13,6,0.65,8.83,1.53c2.87,0.9,5.6,2.15,8.13,3.72
		c2.55,1.59,4.87,3.51,6.92,5.69c2.06,2.19,3.84,4.64,5.25,7.25c1.41,2.61,2.49,5.43,3.21,8.37c0.7,2.88,1.03,5.87,0.98,8.87
		l-10.18-0.16c0.04-2.13-0.2-4.26-0.7-6.32c-0.49-2.01-1.26-3.99-2.29-5.9c-1.03-1.89-2.27-3.62-3.7-5.14
		c-1.44-1.53-3.08-2.88-4.89-4.01c-1.82-1.14-3.76-2.03-5.75-2.64c-2.05-0.63-4.14-1-6.23-1.09c-2.12-0.09-4.25,0.1-6.34,0.55
		c-2.09,0.46-4.1,1.17-5.96,2.12l-4.57,2.34l-2.3-4.59l-0.9-1.65C65.06,73.18,58.3,69.1,50.8,67.94c-7.9-1.22-16.7,0.65-24.74,4.66
		c-0.7,0.35-1.57,0.82-2.61,1.41L18.39,65.16L18.39,65.16z"/>
	<path d="M25.8,91.13c0.7-0.19,1.48-0.43,2.33-0.7c12.51-4.04,22.31-12.17,28.15-22.23c5.78-9.98,7.67-21.89,4.44-33.62l-0.57-1.88
		c-1.46-4.61-2.38-9.33-2.38-13.38c0-2.91,0.48-5.61,1.55-7.88c1.32-2.82,3.45-4.88,6.55-5.87C67.05,5.2,68.29,5,69.59,5
		c9.38,0,16.72,6.28,22.01,14.75c6.62,10.6,10.13,25.07,10.13,33.62c0,19.25-6.44,37.05-17.65,49.87
		c-10.83,12.39-26.05,20.13-44.19,20.13c-15.2,0-34.91,0-34.91-15.92C5,96.54,10.93,95,21.57,92.25L25.8,91.13L25.8,91.13z
		 M31.24,100.13c-0.81,0.26-1.72,0.53-2.74,0.81c-1.51,0.43-3,0.81-4.37,1.17c-5.72,1.48-8.91,2.3-8.91,5.34
		c0,5.7,13.93,5.7,24.69,5.7c15.01,0,27.58-6.39,36.52-16.62c9.59-10.97,15.09-26.37,15.09-43.16c0-7.13-2.97-19.26-8.58-28.23
		c-3.56-5.7-8.11-9.92-13.35-9.92c-0.33,0-0.55,0.02-0.66,0.06c-0.14,0.04-0.28,0.22-0.4,0.48c-0.38,0.81-0.55,2.05-0.55,3.57
		c0,3.05,0.72,6.69,1.85,10.26c0.22,0.68,0.45,1.44,0.69,2.32c3.98,14.47,1.67,29.14-5.44,41.4
		C58.04,85.48,46.25,95.28,31.24,100.13L31.24,100.13z"/>
</g>
</svg>
